<svg xmlns="http://www.w3.org/2000/svg" viewBox="0 0 32 40" x="0px" y="0px"><title>check mark</title><g><path d="M21.342,12.248l-7.214,6.312-3.347-4.184a1,1,0,0,0-1.562,1.249l4,5a1,1,0,0,0,.692.372c.03,0,.06,0,.089,0a1,1,0,0,0,.658-.248l8-7a1,1,0,1,0-1.316-1.5Z"/><path d="M16,4A12,12,0,1,0,28,16,12.013,12.013,0,0,0,16,4Zm0,22A10,10,0,1,1,26,16,10.011,10.011,0,0,1,16,26Z"/></g><text x="0" y="47" fill="#000000" font-size="5px" font-weight="bold" font-family="'Helvetica Neue', Helvetica, Arial-Unicode, Arial, Sans-serif">Created by Letseate</text><text x="0" y="52" fill="#000000" font-size="5px" font-weight="bold" font-family="'Helvetica Neue', Helvetica, Arial-Unicode, Arial, Sans-serif">from the Noun Project</text></svg>